<svg width="32" height="32" viewBox="0 0 32 32" fill="none" xmlns="http://www.w3.org/2000/svg">
<rect width="32.0011" height="32.0011" fill="white"/>
<path d="M28.8022 16.2952C28.8022 15.4251 28.7302 14.5503 28.5767 13.6943H16.2607V18.6232H23.3135C23.0208 20.2129 22.0805 21.6191 20.7035 22.5127V25.7109H24.9112C27.382 23.4816 28.8022 20.1894 28.8022 16.2952Z" fill="#4285F4"/>
<path d="M16.2596 28.8015C19.7813 28.8015 22.7513 27.668 24.9152 25.7114L20.7073 22.5131C19.5366 23.2939 18.0253 23.736 16.2644 23.736C12.8578 23.736 9.96939 21.4831 8.93302 18.4541H4.59082V21.7512C6.8075 26.0736 11.3224 28.8015 16.2596 28.8015Z" fill="#34A853"/>
<path d="M8.92634 18.4539C8.37939 16.8643 8.37939 15.1429 8.92634 13.5533V10.2563H4.58915C2.73721 13.8731 2.73721 18.1341 4.58915 21.7508L8.92634 18.4539Z" fill="#FBBC04"/>
<path d="M16.2596 8.26659C18.1212 8.23837 19.9205 8.92506 21.2687 10.1856L24.9968 6.53105C22.6361 4.35809 19.503 3.16343 16.2596 3.20106C11.3224 3.20106 6.8075 5.92901 4.59082 10.2561L8.92822 13.5532C9.9598 10.5195 12.853 8.26659 16.2596 8.26659Z" fill="#EA4335"/>
</svg>
